<svg width="20" height="21" viewBox="0 0 20 21" fill="none" xmlns="http://www.w3.org/2000/svg">
<path d="M17.3125 10.8369C17.3125 14.8756 14.0386 18.1494 10 18.1494V19.8369C14.9706 19.8369 19 15.8075 19 10.8369H17.3125ZM10 18.1494C5.96142 18.1494 2.6875 14.8756 2.6875 10.8369H1C1 15.8075 5.02943 19.8369 10 19.8369V18.1494ZM2.6875 10.8369C2.6875 6.79833 5.96142 3.52441 10 3.52441V1.83691C5.02943 1.83691 1 5.86635 1 10.8369H2.6875ZM10 3.52441C14.0386 3.52441 17.3125 6.79833 17.3125 10.8369H19C19 5.86635 14.9706 1.83691 10 1.83691V3.52441Z" fill="#595667"/>
<path d="M11.6875 8.58691C11.6875 9.51886 10.932 10.2744 10 10.2744V11.9619C11.864 11.9619 13.375 10.4509 13.375 8.58691H11.6875ZM10 10.2744C9.06805 10.2744 8.3125 9.51886 8.3125 8.58691H6.625C6.625 10.4509 8.13599 11.9619 10 11.9619V10.2744ZM8.3125 8.58691C8.3125 7.65493 9.06805 6.89941 10 6.89941V5.21191C8.13599 5.21191 6.625 6.72296 6.625 8.58691H8.3125ZM10 6.89941C10.932 6.89941 11.6875 7.65493 11.6875 8.58691H13.375C13.375 6.72296 11.864 5.21191 10 5.21191V6.89941Z" fill="#595667"/>
<path d="M3.94949 15.9216C3.65107 16.2794 3.69929 16.8116 4.05718 17.1099C4.41509 17.4084 4.94714 17.3601 5.24556 17.0023L3.94949 15.9216ZM14.7552 17.0023C15.0536 17.3601 15.5857 17.4084 15.9436 17.1099C16.3014 16.8116 16.3497 16.2794 16.0512 15.9216L14.7552 17.0023ZM5.24556 17.0023C6.3819 15.6394 8.08974 14.7744 10.0004 14.7744V13.0869C7.56803 13.0869 5.39271 14.1907 3.94949 15.9216L5.24556 17.0023ZM10.0004 14.7744C11.911 14.7744 13.6189 15.6394 14.7552 17.0023L16.0512 15.9216C14.6081 14.1907 12.4328 13.0869 10.0004 13.0869V14.7744Z" fill="#595667"/>
</svg>
