<svg width="189" height="49" viewBox="0 0 189 49" fill="none" xmlns="http://www.w3.org/2000/svg">
<g clip-path="url(#clip0_900_3131)">
<path d="M5.95002 10.6587H11.9933L12.5061 11.815H5.61542L5.95002 10.6587Z" fill="#303030"/>
<path d="M11.4635 13.7983C11.4085 13.9053 11.3587 14.015 11.3115 14.1247C11.2513 14.0177 11.1884 13.908 11.1281 13.7983H11.4635Z" fill="#303030"/>
<path d="M9.73415 38.7527V40.0527C8.23276 40.0527 6.83094 40.2025 5.46842 40.0179C3.41678 39.7424 1.79747 37.5864 1.76079 35.1951C1.7084 31.913 1.7084 28.6309 1.76079 25.3488C1.79223 23.3319 2.65691 21.8019 4.3522 20.7935C4.54014 20.6523 4.69744 20.4729 4.81423 20.2667C4.93102 20.0605 5.00477 19.8318 5.03084 19.5951C5.05442 19.2153 5.08848 18.8408 5.13041 18.4663L9.73153 26.3385C9.71842 30.4766 9.73415 34.6147 9.73415 38.7527Z" fill="#303030"/>
<path d="M18.0377 7.2583C15.5459 8.3428 13.4609 10.2153 12.0897 12.6001H9.121L10.7691 15.5184C10.7613 15.5371 10.756 15.5558 10.7482 15.5772C10.5008 16.3169 10.2961 17.0707 10.135 17.8348C9.86287 19.2559 9.73381 20.7016 9.74986 22.1494C9.74462 22.9412 9.73938 23.7303 9.73938 24.5194C9.73731 24.53 9.73643 24.5407 9.73676 24.5515L5.37671 16.8612V16.8585C5.37932 16.8425 5.38457 16.8264 5.38719 16.8104C6.06698 13.2645 7.65965 9.96748 10.0014 7.25831L18.0377 7.2583Z" fill="#303030"/>
<path d="M36.1434 6.10281H25.825C24.5911 5.92217 23.3382 5.92217 22.1043 6.10281H11.0888C14.0742 3.16515 17.9415 1.33909 22.0676 0.91887C27.3342 0.389246 32.407 2.46229 36.1434 6.10281Z" fill="#303030"/>
<path d="M40.6005 12.6108C38.7715 12.6054 36.9435 12.6027 35.1163 12.6027C35.0246 12.461 34.9277 12.3192 34.8281 12.1801C33.2428 9.96262 31.4244 8.30151 29.3885 7.2583H37.2387C38.6279 8.84747 39.7617 10.6513 40.5978 12.6027C40.5988 12.6038 40.5996 12.6051 40.6 12.6064C40.6005 12.6078 40.6006 12.6093 40.6005 12.6108Z" fill="#303030"/>
<path d="M41.735 16.147L37.8335 23.511L37.5322 24.078C37.5348 24.0666 37.5348 24.0547 37.5322 24.0433C37.5322 23.3585 37.5269 22.6737 37.5243 21.9889C37.5086 19.0787 37.092 16.2727 35.7897 13.7583H41.0512C41.3288 14.5388 41.5573 15.3367 41.735 16.147Z" fill="#303030"/>
<path d="M45.5186 24.5009V35.9548C44.1902 39.7264 42.6757 40.5128 37.5348 40.0046V38.8223C37.5348 34.7136 37.5479 30.605 37.54 26.499V26.4964L42.0494 17.9849C42.1019 18.3995 42.1412 18.8194 42.1647 19.2421C42.2119 20.0659 42.3455 20.6116 43.1499 21.0048C44.5072 21.6655 45.102 23.0431 45.5186 24.5009Z" fill="#303030"/>
<path d="M11.2434 16.3583L11.2251 16.4493L10.7482 15.5773L9.12103 12.6001L10.7692 15.5184L11.2434 16.3583Z" fill="#303030"/>
<path d="M11.888 13.7983L11.8172 13.9134C11.7143 14.0814 11.6423 14.2672 11.605 14.4617L11.5788 14.5981C11.4923 14.443 11.4032 14.2852 11.3115 14.1247C11.2513 14.0177 11.1884 13.908 11.1281 13.7983H11.888Z" fill="#303030"/>
<path d="M46.5667 7.2583L46.4148 7.3118L43.6085 12.6081C43.5482 12.6108 43.4827 12.6134 43.4172 12.6134C42.618 12.6108 41.8163 12.6108 41.0171 12.6108C40.8782 12.6081 40.7393 12.6081 40.6005 12.6108C38.7715 12.6054 36.9435 12.6027 35.1163 12.6027H34.9722C27.5229 12.5947 20.0745 12.5938 12.6269 12.6001C12.4461 12.5974 12.2679 12.6001 12.0897 12.6001H9.12102L10.7691 15.5184L11.2434 16.3583L14.5711 22.2564L16.1799 19.3488C16.0227 19.2499 15.9624 19.1803 15.9179 19.191C14.3458 19.5468 13.6619 18.5678 13.0671 17.3159C12.6348 16.4091 12.1212 15.5425 11.5788 14.5982C11.4923 14.4431 11.4032 14.2853 11.3115 14.1248C11.2513 14.0178 11.1884 13.9081 11.1281 13.7984H25.4346L14.5685 33.0817C14.4348 32.8437 14.3012 32.6083 14.1676 32.3702L14.0104 32.092C12.5797 29.5535 11.1561 27.0293 9.7394 24.5194C8.28517 21.9462 6.83443 19.3765 5.38719 16.8104C3.59758 13.6353 1.80185 10.4512 0 7.25831L46.5667 7.2583Z" fill="#303030"/>
<path d="M43.0006 13.7582L41.735 16.1469L37.8335 23.5109C37.7339 23.6901 37.6343 23.8667 37.5322 24.0432L35.6613 27.3494C35.2603 27.9934 34.8913 28.6576 34.5556 29.3395C34.2857 29.9547 33.8586 30.0136 33.2979 30.0082C30.392 29.9922 27.4836 30.0162 24.5751 29.9868C24.3196 29.9585 24.0618 30.0124 23.8377 30.1409C23.6136 30.2694 23.4345 30.4662 23.3253 30.7037C22.741 31.7817 22.0728 32.8142 21.4911 33.8948C21.4079 34.0411 21.355 34.2031 21.3356 34.3711C21.3162 34.539 21.3308 34.7092 21.3784 34.8712C21.9208 35.9304 22.5523 36.9442 23.2598 38.1559C23.7131 37.3882 24.0589 36.7222 24.486 36.1177C24.6719 35.8318 24.9611 35.6327 25.2904 35.564C27.1167 35.5158 28.943 35.5399 31.013 35.5399C28.4845 40.0364 26.0477 44.3724 23.5375 48.8368C22.8091 47.5635 22.1488 46.424 21.499 45.2765C19.5207 41.7858 17.5346 38.295 15.5877 34.7856C15.498 34.6103 15.4462 34.4173 15.4358 34.2198C15.4254 34.0223 15.4567 33.8248 15.5275 33.6407C17.0577 30.8508 18.6281 28.085 20.2386 25.3432C20.3646 25.1732 20.5247 25.0325 20.7081 24.9305C20.8916 24.8286 21.0942 24.7678 21.3024 24.752C24.1664 24.6745 27.0303 24.6415 29.8942 24.6531C30.6488 24.6531 31.1178 24.4819 31.5082 23.7356C32.2838 22.2457 33.2114 20.8387 34.194 19.2016H23.6607C24.7166 17.3399 25.6494 15.6734 26.6137 14.0257C26.7027 13.8732 26.991 13.8251 27.198 13.7689C27.3594 13.7453 27.523 13.7417 27.6853 13.7582L43.0006 13.7582Z" fill="#303030"/>
<path d="M41.0171 12.6119C40.8782 12.6089 40.7393 12.6089 40.6005 12.6119C38.7715 12.606 36.9435 12.603 35.1163 12.603H41.0145L41.0171 12.6119Z" fill="#303030"/>
</g>
<path d="M70.16 37.3369H63.376C61.84 35.9289 60.72 34.2542 60.016 32.3129C59.312 30.3716 58.96 28.3449 58.96 26.2329C58.96 24.0996 59.3867 21.9982 60.24 19.9289C61.0933 17.8596 62.288 16.1956 63.824 14.9369H71.6V18.7769H65.648C65.0933 19.4169 64.6133 20.4302 64.208 21.8169C63.8027 23.1822 63.6 24.6436 63.6 26.2009C63.6 27.7369 63.7813 29.2089 64.144 30.6169C64.528 32.0036 64.9973 33.0062 65.552 33.6249H68.624V24.9209H72.848V30.2969C72.848 33.2409 71.952 35.5876 70.16 37.3369ZM79.4125 14.9369V37.3369H75.1885V14.9369H79.4125ZM89.8693 29.9449H86.4453C85.9973 30.4996 85.7733 31.1929 85.7733 32.0249C85.7733 32.8569 86.0079 33.5076 86.4773 33.9769H89.8693V29.9449ZM82.9893 20.9849H90.9253C92.2053 21.7529 93.0479 22.6382 93.4533 23.6409C93.8586 24.6222 94.0613 25.9662 94.0613 27.6729V32.4729C94.0613 34.2436 94.1039 35.8649 94.1893 37.3369H90.5413L89.9653 36.1849C89.1333 36.9529 87.9599 37.3369 86.4453 37.3369H84.4293C82.6159 36.1422 81.7093 34.4249 81.7093 32.1849C81.7093 29.9236 82.6373 28.1422 84.4933 26.8409H87.5013C88.3333 26.8409 89.1119 27.0969 89.8373 27.6089V26.0089C89.8373 25.1769 89.4746 24.6222 88.7493 24.3449H82.9893V20.9849ZM103.918 20.9849H106.19L106.99 22.1049C107.438 21.6996 107.864 21.4116 108.27 21.2409C108.696 21.0702 109.326 20.9849 110.158 20.9849H113.71C114.648 22.1796 115.288 23.3742 115.63 24.5689C115.971 25.7636 116.142 27.2569 116.142 29.0489V37.3369H111.885V28.7289C111.885 26.7662 111.587 25.3049 110.99 24.3449H107.918C108.387 25.2622 108.622 26.5102 108.622 28.0889V37.3369H104.366V28.7289C104.366 26.7022 104.088 25.2409 103.534 24.3449H101.07V37.3369H96.8135V20.9849H100.141L100.718 22.1369C101.187 21.7102 101.624 21.4116 102.03 21.2409C102.456 21.0702 103.086 20.9849 103.918 20.9849ZM134.66 37.3369H127.876C126.34 35.9289 125.22 34.2542 124.516 32.3129C123.812 30.3716 123.46 28.3449 123.46 26.2329C123.46 24.0996 123.887 21.9982 124.74 19.9289C125.593 17.8596 126.788 16.1956 128.324 14.9369H136.1V18.7769H130.148C129.593 19.4169 129.113 20.4302 128.708 21.8169C128.303 23.1822 128.1 24.6436 128.1 26.2009C128.1 27.7369 128.281 29.2089 128.644 30.6169C129.028 32.0036 129.497 33.0062 130.052 33.6249H133.124V24.9209H137.348V30.2969C137.348 33.2409 136.452 35.5876 134.66 37.3369ZM147.081 24.3449H144.681C144.361 24.7289 144.094 25.2622 143.881 25.9449C143.689 26.6276 143.593 27.2889 143.593 27.9289H148.169C148.211 27.2889 148.126 26.6276 147.913 25.9449C147.699 25.2409 147.422 24.7076 147.081 24.3449ZM151.433 33.9769V37.3369H143.305C141.811 36.3342 140.755 35.0969 140.137 33.6249C139.539 32.1316 139.241 30.6276 139.241 29.1129C139.241 25.6142 140.563 22.9049 143.209 20.9849H148.393C149.822 22.0302 150.793 23.1396 151.305 24.3129C151.817 25.4862 152.073 26.6702 152.073 27.8649C152.073 29.0596 151.977 30.0836 151.785 30.9369H143.817C143.881 31.4276 144.062 31.9929 144.361 32.6329C144.681 33.2516 145.022 33.6996 145.385 33.9769H151.433ZM161.932 29.9449H158.508C158.06 30.4996 157.836 31.1929 157.836 32.0249C157.836 32.8569 158.07 33.5076 158.54 33.9769H161.932V29.9449ZM155.052 20.9849H162.988C164.268 21.7529 165.11 22.6382 165.516 23.6409C165.921 24.6222 166.124 25.9662 166.124 27.6729V32.4729C166.124 34.2436 166.166 35.8649 166.252 37.3369H162.604L162.028 36.1849C161.196 36.9529 160.022 37.3369 158.508 37.3369H156.492C154.678 36.1422 153.772 34.4249 153.772 32.1849C153.772 29.9236 154.7 28.1422 156.556 26.8409H159.564C160.396 26.8409 161.174 27.0969 161.9 27.6089V26.0089C161.9 25.1769 161.537 24.6222 160.812 24.3449H155.052V20.9849ZM168.908 37.3369V20.9849H171.948L172.748 22.7129C173.601 21.5609 174.679 20.9849 175.98 20.9849H177.228V25.2729H173.164V37.3369H168.908ZM180.351 20.9849H187.423V24.3449H182.431L185.471 28.8569C186.836 30.7982 187.594 32.1316 187.743 32.8569C187.828 33.1982 187.871 33.5502 187.871 33.9129C187.871 35.4276 187.306 36.5689 186.175 37.3369H178.015V33.9769H183.871L180.447 28.9529C180.298 28.7182 180.063 28.3876 179.743 27.9609C179.444 27.5342 179.21 27.1929 179.039 26.9369C178.868 26.6596 178.751 26.4569 178.687 26.3289C178.623 26.2009 178.538 26.0409 178.431 25.8489C178.324 25.6356 178.25 25.4542 178.207 25.3049C178.122 24.8996 178.079 24.5689 178.079 24.3129C178.079 22.7556 178.836 21.6462 180.351 20.9849Z" fill="#303030"/>
<defs>
<clipPath id="clip0_900_3131">
<rect width="48" height="48" fill="white" transform="translate(0 0.836914)"/>
</clipPath>
</defs>
</svg>
