<svg width="20" height="21" viewBox="0 0 20 21" fill="none" xmlns="http://www.w3.org/2000/svg">
<path d="M4.98383 5.3779H18.5577L16.6253 13.5907C16.3743 14.657 15.4229 15.4107 14.3274 15.4107H9.45672C8.38557 15.4107 7.4487 14.6895 7.17461 13.6541L4.98383 5.3779ZM4.98383 5.3779L4.09858 1.83691H1.44282" stroke="#595667" stroke-width="1.5" stroke-linecap="round" stroke-linejoin="round"/>
<path d="M7.64055 19.8367C8.29244 19.8367 8.82089 19.3083 8.82089 18.6564C8.82089 18.0045 8.29244 17.4761 7.64055 17.4761C6.98867 17.4761 6.46022 18.0045 6.46022 18.6564C6.46022 19.3083 6.98867 19.8367 7.64055 19.8367Z" fill="#595667"/>
<path d="M15.9036 19.8367C16.5555 19.8367 17.0839 19.3083 17.0839 18.6564C17.0839 18.0045 16.5555 17.4761 15.9036 17.4761C15.2517 17.4761 14.7233 18.0045 14.7233 18.6564C14.7233 19.3083 15.2517 19.8367 15.9036 19.8367Z" fill="#595667"/>
</svg>
